<svg width="218" height="166" viewBox="0 0 218 166" fill="none" xmlns="http://www.w3.org/2000/svg">
<path d="M142.926 9.01177C170.152 -10.4848 208.302 6.49496 212.039 39.7725L212.175 40.9811C213.9 56.3336 223.574 69.6456 237.643 76.026L238.752 76.5288C269.249 90.3592 273.619 131.887 246.668 151.763L245.689 152.485C233.256 161.654 226.564 176.689 228.074 192.064L228.193 193.274C231.464 226.602 197.685 251.15 166.997 237.748L165.881 237.26C151.724 231.078 135.358 232.801 122.797 241.794L121.809 242.503C94.5828 262 56.4327 245.02 52.6953 211.742L52.5595 210.533C50.8349 195.182 41.1603 181.869 27.0911 175.488L25.9833 174.986C-4.51429 161.156 -8.88464 119.628 18.0663 99.7513L19.0449 99.03C31.478 89.8608 38.1697 74.8258 36.6606 59.451L36.5417 58.2406C33.2705 24.9137 67.0499 0.364903 97.7382 13.7669L98.8528 14.2537C113.01 20.4365 129.376 18.7142 141.937 9.71985L142.926 9.01177Z" fill="url(#paint0_linear_139_5852)"/>
<defs>
<linearGradient id="paint0_linear_139_5852" x1="271.26" y1="42.4195" x2="28.489" y2="137.058" gradientUnits="userSpaceOnUse">
<stop stop-color="#B0B9FF"/>
<stop offset="1" stop-color="#E7E9FF"/>
</linearGradient>
</defs>
</svg>
